<svg width="93" height="26" viewBox="0 0 93 26" fill="none" xmlns="http://www.w3.org/2000/svg">
<path d="M19.8234 0C22.6831 0 25.007 0.900739 26.7972 2.70324C28.5875 4.50574 29.4821 6.82455 29.4821 9.65968C29.4821 12.4948 28.5864 14.8136 26.7972 16.6161C25.007 18.4186 22.6821 19.3194 19.8234 19.3194H9.43475V25.1604H0V0H19.8234ZM18.4196 11.2321C18.7438 11.2321 19.0004 11.2199 19.1875 11.1943C19.3746 11.1698 19.5934 11.1074 19.8428 11.0072C20.0923 10.908 20.2794 10.7261 20.4041 10.4643C20.5289 10.2026 20.5912 9.85905 20.5912 9.43475C20.5912 9.01045 20.5289 8.66693 20.4041 8.40519C20.2794 8.14346 20.0923 7.96249 19.8428 7.86229C19.5934 7.76312 19.3746 7.69973 19.1875 7.67519C19.0004 7.65066 18.7438 7.63736 18.4196 7.63736H9.43475V11.2311H18.4196V11.2321Z" fill="#101010"/>
<path d="M46.4641 14.1613L43.5523 6.46978L40.6415 14.1613L38.1969 20.6311L36.4721 25.1593H26.1929L36.6163 0H50.4903L60.9137 25.1593H50.6335L48.9076 20.6311L46.4641 14.1613Z" fill="#101010"/>
<path d="M87.159 0V8.08722H76.3767V25.1593H66.942V8.08722H56.1597V0H87.159Z" fill="#101010"/>
<path d="M84.4639 18.8695H92.9999V25.1593H84.4639V18.8695Z" fill="#101010"/>
</svg>
